<svg width="500" height="570" xmlns="http://www.w3.org/2000/svg">
    <g id="svg_1" fill="#1e40af" transform="translate(0, 1024) scale(0.1, -0.1)">
        <path id="svg_2"
            d="m3972.49564,10147.92058c-298.25791,-38.8759 -566.58682,-242.46287 -677.01449,-512.54808c-100.10732,-245.53202 -67.08223,-555.51619 81.53071,-776.495c152.74107,-228.14017 411.78168,-361.13667 700.75127,-361.13667c602.70802,1.02305 997.97715,629.17579 739.96858,1175.48453c-104.23546,220.97882 -300.32197,385.68988 -535.62579,450.14203c-76.37054,21.48405 -239.43195,34.7837 -309.61028,24.5532z" />
        <path id="svg_3"
            d="m2300.60011,9586.26609c-573.81106,-67.5213 -1052.67496,-275.20047 -1432.46358,-620.99139c-365.34013,-332.49127 -611.99633,-717.1581 -741.00061,-1157.06963c-180.606,-615.87614 -116.61987,-1307.45799 172.34972,-1869.11248c123.84411,-240.41677 273.48908,-444.00373 470.60763,-639.40629c413.84575,-409.22003 957.72781,-645.54459 1591.39686,-690.5588c253.88043,-18.4149 510.85697,8.1844 770.92961,78.77486c992.81698,269.06217 1690.47215,1089.54832 1811.22016,2126.9211c15.48051,136.06566 15.48051,456.28033 0,578.02329c-29.92899,233.25542 -77.40257,422.51968 -150.677,604.62259c-49.53765,121.74296 -123.84411,273.15437 -143.45276,293.61537c-10.32034,11.25355 -27.86493,4.0922 -94.94715,-34.7837c-95.97919,-56.26775 -239.43195,-126.85821 -259.0406,-126.85821c-21.67272,0 -16.51255,-18.4149 26.83289,-96.16671c212.59906,-383.64378 278.64926,-970.87452 159.96531,-1426.1318c-90.81902,-348.86007 -221.88737,-604.62259 -460.28729,-894.14576l-98.04326,-119.69686l-7.22424,62.40605c-3.0961,34.7837 -6.19221,195.40256 -6.19221,358.06752l0,295.66147l-25.80086,25.57625l-26.83289,26.5993l-177.5099,-7.16135c-154.80514,-6.1383 -180.606,-10.2305 -198.15058,-26.5993c-19.60865,-19.43795 -20.64069,-36.8298 -25.80086,-553.47009l-5.16017,-533.00909l-113.52377,-49.1064c-100.10732,-42.9681 -114.5558,-47.0603 -120.74801,-31.71455c-4.12814,9.20745 -7.22424,200.51781 -7.22424,424.56578l-1.03203,407.17393l-25.80086,24.5532c-23.73679,24.5532 -29.92899,25.57625 -163.06142,25.57625c-121.78004,0 -142.42073,-2.0461 -163.06142,-19.43795l-24.76882,-19.43795l-5.16017,-483.90268l-5.16017,-483.90268l-41.28137,-7.16135c-22.70475,-4.0922 -72.2424,-10.2305 -110.42767,-14.3227l-70.17833,-7.16135l0,814.34786l0,814.34786l498.47256,2.0461l497.44052,3.06915l3.0961,298.73062c2.06407,260.87777 0,299.75367 -14.44848,314.07637c-14.44848,14.3227 -72.2424,16.3688 -501.56866,16.3688l-485.05611,0l4.12814,151.41141c4.12814,124.81211 8.25627,160.61886 27.86493,209.72526c46.44154,117.65076 142.42073,203.58696 270.39298,243.48592c57.79392,18.4149 101.13936,19.43795 551.1063,19.43795c268.32891,0 495.37645,3.06915 504.66476,6.1383c14.44848,5.11525 16.51255,31.71455 16.51255,188.24121l0,182.10291l-43.34544,7.16135c-138.29259,22.5071 -334.37911,105.37416 -493.31238,207.67916l-87.72291,56.26775l-227.04754,-2.0461c-317.86656,-3.06915 -427.26219,-25.57625 -629.54091,-125.83516c-117.65191,-59.3369 -206.40686,-123.78906 -301.35401,-220.97882c-180.606,-184.14901 -286.90553,-401.03563 -328.1869,-667.02865c-12.38441,-80.82096 -15.48051,-291.56927 -15.48051,-1252.21329l0,-1154.00048l-27.86493,7.16135c-16.51255,3.06915 -77.40257,25.57625 -137.26056,49.1064l-108.3636,43.99115l-6.19221,234.27847c-4.12814,129.92736 -7.22424,657.82119 -8.25627,1174.46148c-1.03203,923.81421 -1.03203,938.13691 -21.67272,958.59792c-19.60865,19.43795 -34.05713,20.461 -206.40686,20.461c-242.52806,0 -227.04754,14.3227 -227.04754,-204.61001l0,-163.68801l-157.90124,0c-125.90818,0 -162.02938,-3.06915 -180.606,-16.3688l-22.70475,-15.34575l0,-588.25379c0,-323.28382 -4.12814,-587.23074 -8.25627,-587.23074c-12.38441,0 -76.37054,122.76601 -131.06835,250.64727c-55.72985,129.92736 -108.3636,306.91502 -135.19649,451.16508c-26.83289,146.29616 -27.86493,546.30874 -1.03203,703.85845c74.30647,434.79628 268.32891,818.44006 572.77902,1132.51643c140.35666,145.27311 221.88737,211.77136 363.27607,300.77672c260.07264,161.64191 537.68986,262.92387 846.26811,307.93807c163.06142,23.53015 520.14528,15.34575 651.21363,-14.3227l88.75495,-19.43795l7.22424,113.55856c4.12814,62.40605 13.41645,149.36531 20.64069,193.35646l13.41645,80.82096l-25.80086,9.20745c-69.1463,26.5993 -226.01551,41.94505 -440.67864,45.0142c-124.87615,2.0461 -243.56009,1.02305 -263.16874,-1.02305zm-936.05509,-2175.00445c13.41645,-11.25355 16.51255,-36.8298 19.60865,-140.15786c2.06407,-121.74296 1.03203,-126.85821 -21.67272,-145.27311c-30.96103,-24.5532 -43.34544,-24.5532 -77.40257,2.0461c-26.83289,20.461 -26.83289,22.5071 -26.83289,147.31921c0,110.48941 2.06407,127.88126 18.57662,137.08871c24.76882,14.3227 67.08223,13.29965 87.72291,-1.02305zm-345.73148,-382.62073c21.67272,-6.1383 23.73679,-11.25355 20.64069,-69.5674l-3.0961,-62.40605l-53.66578,-3.06915l-54.69782,-3.06915l0,65.4752c0,35.80675 3.0961,68.54435 7.22424,71.6135c8.25627,9.20745 51.60171,9.20745 83.59478,1.02305zm341.60335,-94.12061l22.70475,-17.39185l2.06407,-795.93295c1.03203,-436.84238 -1.03203,-794.9099 -5.16017,-794.9099c-3.0961,0 -31.99306,20.461 -63.98613,47.0603l-57.79392,46.03725l0,747.8496c0,682.3744 1.03203,749.8957 17.54458,767.28755c20.64069,23.53015 55.72985,23.53015 84.62681,0zm-324.05876,-281.33877c4.12814,-18.4149 5.16017,-50.12945 3.0961,-69.5674c-3.0961,-34.7837 -4.12814,-34.7837 -56.76189,-37.85285l-54.69782,-3.06915l0,71.6135l0,72.63655l51.60171,0c49.53765,0 50.56968,-1.02305 56.76189,-33.76065zm-9.28831,-332.49127c6.19221,-4.0922 12.38441,-33.76065 13.41645,-65.4752l2.06407,-59.3369l-56.76189,0l-57.79392,0l0,59.3369c0,32.7376 3.0961,63.4291 7.22424,66.49825c9.28831,9.20745 77.40257,9.20745 91.85105,-1.02305zm2697.7376,-227.11712l0,-61.383l-46.44154,0l-46.44154,0l0,61.383l0,61.383l46.44154,0l46.44154,0l0,-61.383zm-2699.80167,-118.67381c12.38441,-5.11525 16.51255,-21.48405 16.51255,-71.6135l0,-65.4752l-56.76189,0l-56.76189,0l0,65.4752c0,60.35995 2.06407,66.49825 23.73679,70.59045c38.18527,7.16135 56.76189,7.16135 73.27443,1.02305zm2023.81922,-193.35646c0,-59.3369 -1.03203,-61.383 -28.89696,-64.45215c-43.34544,-5.11525 -58.82595,13.29965 -58.82595,69.5674c0,25.57625 3.0961,51.1525 7.22424,55.2447c4.12814,4.0922 23.73679,6.1383 44.37747,4.0922l36.1212,-3.06915l0,-61.383zm684.23873,-104.35111c2.06407,-120.71991 0,-147.31921 -13.41645,-160.61886c-20.64069,-19.43795 -46.44154,-21.48405 -70.17833,-3.06915c-17.54458,12.2766 -20.64069,51.1525 -18.57662,235.30152l1.03203,79.79791l49.53765,-3.06915l48.50561,-3.06915l3.0961,-145.27311zm-680.11059,-164.71106c13.41645,-24.5532 13.41645,-234.27847 0,-258.83167c-12.38441,-23.53015 -53.66578,-25.57625 -75.3385,-3.06915c-13.41645,12.2766 -16.51255,39.89895 -16.51255,136.06566c0,79.79791 4.12814,123.78906 12.38441,131.97346c18.57662,18.4149 68.11426,15.34575 79.46664,-6.1383z" />
        <path id="svg_4"
            d="m2465.72559,8968.34385c-28.89696,-28.6454 -27.86493,-95.14366 1.03203,-123.78906c17.54458,-17.39185 29.92899,-20.461 59.85799,-15.34575c45.40951,7.16135 73.27443,37.85285 73.27443,82.86706c0,64.45215 -88.75495,101.28196 -134.16446,56.26775z" />
        <path id="svg_5"
            d="m2076.64867,8912.07609c-63.98613,-43.99115 -12.38441,-162.66496 63.98613,-144.25006c61.92206,15.34575 85.65885,82.86706 45.40951,132.99651c-24.76882,30.6915 -73.27443,35.80675 -109.39563,11.25355z" />
        <path id="svg_6"
            d="m1692.73192,8767.82603c-25.80086,-32.7376 -27.86493,-63.4291 -5.16017,-94.12061c36.1212,-52.17555 107.33156,-51.1525 134.16446,0c30.96103,59.3369 -4.12814,120.71991 -69.1463,120.71991c-29.92899,0 -43.34544,-6.1383 -59.85799,-26.5993z" />
        <path id="svg_7"
            d="m1275.79007,8373.95176c-80.49867,-19.43795 -147.5809,-74.68266 -179.57396,-151.41141c-49.53765,-117.65076 8.25627,-269.06217 125.90818,-331.46822c57.79392,-30.6915 169.25362,-30.6915 228.07958,0c137.26056,71.6135 185.76617,248.60117 102.17139,372.39023c-59.85799,90.02841 -173.38176,135.04261 -276.58519,110.48941z" />
        <path id="svg_8"
            d="m3951.85495,7211.76688c-60.89002,-21.48405 -79.46664,-87.98231 -36.1212,-130.95041c72.2424,-72.63655 185.76617,25.57625 116.61987,101.28196c-25.80086,26.5993 -55.72985,37.85285 -80.49867,29.66845z" />
        <path id="svg_9"
            d="m4069.50686,6881.3217c-28.89696,-11.25355 -55.72985,-49.1064 -55.72985,-77.75181c0,-12.2766 10.32034,-33.76065 21.67272,-49.1064c18.57662,-23.53015 27.86493,-27.62235 70.17833,-24.5532c43.34544,3.06915 49.53765,6.1383 66.05019,40.922c17.54458,34.7837 17.54458,39.89895 3.0961,67.5213c-9.28831,17.39185 -29.92899,35.80675 -48.50561,41.94505c-18.57662,6.1383 -33.0251,11.25355 -34.05713,10.2305c-1.03203,0 -11.35238,-4.0922 -22.70475,-9.20745z" />
        <path id="svg_10"
            d="m4111.82027,6548.83043c-54.69782,-53.1986 -18.57662,-138.11176 58.82595,-138.11176c72.2424,0 106.29953,87.98231 54.69782,138.11176c-15.48051,16.3688 -37.15323,25.57625 -56.76189,25.57625c-19.60865,0 -41.28137,-9.20745 -56.76189,-25.57625z" />
    </g>

</svg>